{"title":"Okkadine (2013) Telugu Movie PDVD MPEG - Exclusive","uid":8226936,"size":1217378435,"categoryP":"video","categoryS":"movies","magnet":"?xt=urn:btih:d707b2643ec8b7c07f841ac6f607fb51642ffd47&amp;dn=Okkadine+%282013%29+Telugu+Movie+PDVD+MPEG+-+Exclusive&amp;tr=udp%3A%2F%2Ftracker.openbittorrent.com%3A80&amp;tr=udp%3A%2F%2Fopen.demonii.com%3A1337&amp;tr=udp%3A%2F%2Ftracker.coppersurfer.tk%3A6969&amp;tr=udp%3A%2F%2Fexodus.desync.com%3A6969","seeders":1,"leechers":0,"uploader":"tykoon123","files":-1,"time":1362625406,"description":" &lt;a href=&quot;http://imgr.us/images/lup5fpo105ngg65zk44.jpg&quot; rel=&quot;nofollow&quot; target=&quot;_NEW&quot;&gt;http://imgr.us/images/lup5fpo105ngg65zk44.jpg&lt;/a&gt;\n\nInfo:\nInfo:\nFormat : MPEG-PS\nFile size : 1.13GiB\nOverall bit rate : 1 280 Kbps\nWriting library : encoded by TMPGEnc 4.0 XPress Version. 4.2.3.193\n\n\n\nVideo\nID : 224 (0xE0)\nFormat : MPEG Video\nFormat version : Version 2\nFormat settings, BVOP : Yes\nFormat settings, Matrix : Custom\nBit rate mode : Variable\nBit rate : 1 100 Kbps\nWidth : 400 pixels\nHeight : 288 pixels\nDisplay aspect ratio : 1.389\nFrame rate : 29.970 fps\nColor space : YUV\nBit depth : 8 bits\nScan type : Progressive\nCompression mode : Lossy\nBits/(Pixel*Frame) : 0.319\nStream size : 901 MiB (88%)\nWriting library : TMPGEnc XPress 4.2.3.193\n\n\n\nAudio\nID : 192 (0xC0)\nFormat : MPEG Audio\nFormat version : Version 1\nFormat profile : Layer 2\nBit rate mode : Constant\nBit rate : 128 Kbps\nChannel(s) : 2 channels\nSampling rate : 48.0 KHz\nCompression mode : Lossy\nStream size : 102 MiB (10%)\n\nScreens: &lt;a href=&quot;\nhttp://imgr.us/images/bjqs7e1zdmmwtde5m2e.png&quot; rel=&quot;nofollow&quot; target=&quot;_NEW&quot;&gt;\nhttp://imgr.us/images/bjqs7e1zdmmwtde5m2e.png&lt;/a&gt; &lt;a href=&quot;\nhttp://imgr.us/images/nuif8gt60rc1odcfpf.png&quot; rel=&quot;nofollow&quot; target=&quot;_NEW&quot;&gt;\nhttp://imgr.us/images/nuif8gt60rc1odcfpf.png&lt;/a&gt; &lt;a href=&quot;\nhttp://imgr.us/images/ttb3shqjz9p1t59xw0n.png&quot; rel=&quot;nofollow&quot; target=&quot;_NEW&quot;&gt;\nhttp://imgr.us/images/ttb3shqjz9p1t59xw0n.png&lt;/a&gt; &lt;a href=&quot;\nhttp://imgr.us/images/yflx4eedco0moey6rp8m.png&quot; rel=&quot;nofollow&quot; target=&quot;_NEW&quot;&gt;\nhttp://imgr.us/images/yflx4eedco0moey6rp8m.png&lt;/a&gt; &lt;a href=&quot;\nhttp://imgr.us/images/t16a72jvwskoz61irz2.png&quot; rel=&quot;nofollow&quot; target=&quot;_NEW&quot;&gt;\nhttp://imgr.us/images/t16a72jvwskoz61irz2.png&lt;/a&gt;\n\n\n\n","torrent":{"xt":"urn:btih:d707b2643ec8b7c07f841ac6f607fb51642ffd47","amp;dn":"Okkadine+%282013%29+Telugu+Movie+PDVD+MPEG+-+Exclusive","amp;tr":["udp%3A%2F%2Ftracker.openbittorrent.com%3A80","udp%3A%2F%2Fopen.demonii.com%3A1337","udp%3A%2F%2Ftracker.coppersurfer.tk%3A6969","udp%3A%2F%2Fexodus.desync.com%3A6969"],"infoHash":"d707b2643ec8b7c07f841ac6f607fb51642ffd47","infoHashBuffer":{"type":"Buffer","data":[215,7,178,100,62,200,183,192,127,132,26,198,246,7,251,81,100,47,253,71]},"announce":[],"urlList":[]}}